<?xml version="1.0" encoding="UTF-8" standalone="no"?>
<svg
   xmlns:dc="http://purl.org/dc/elements/1.1/"
   xmlns:cc="http://creativecommons.org/ns#"
   xmlns:rdf="http://www.w3.org/1999/02/22-rdf-syntax-ns#"
   xmlns:svg="http://www.w3.org/2000/svg"
   xmlns="http://www.w3.org/2000/svg"
   id="svg998"
   version="1.1"
   viewBox="0 0 84.666665 63.500002"
   height="240"
   width="320">
  <defs
     id="defs992" />
  <metadata
     id="metadata995">
    <rdf:RDF>
      <cc:Work
         rdf:about="">
        <dc:format>image/svg+xml</dc:format>
        <dc:type
           rdf:resource="http://purl.org/dc/dcmitype/StillImage" />
        <dc:title></dc:title>
      </cc:Work>
    </rdf:RDF>
  </metadata>
  <g
     transform="translate(0,-233.49998)"
     id="layer1">
    <g
       transform="matrix(0.21058949,0,0,0.21058949,47.996602,226.21177)"
       id="g1584">
      <g
         id="g1554"
         transform="translate(-118.99765,23.244587)">
        <path
           style="fill:#fef0e7;stroke-width:1.43090987"
           d="m -70.618208,233.20978 0.436128,-6.79682 6.867693,-0.0345 6.725951,-0.0109 v 0.68249 1.50931 h -5.72364 l -5.676392,-0.0473 v 1.45454 l -0.04725,1.45453 h 4.292729 4.29273 v 1.43091 1.43091 h -4.29273 -4.292729 v 2.86182 2.86182 h -1.509311 -1.509311 z m 17.170918,0 0.436128,-6.79682 h 6.439094 6.439095 l 0.436128,6.79682 0.436128,6.79682 h -1.50931 -1.509311 v -2.86182 -2.86182 h -4.29273 -4.292729 v 2.86182 2.86182 h -1.509311 -1.509311 z m 11.167952,-3.21955 v -1.43091 h -4.29273 -4.292729 v 1.43091 1.43091 h 4.292729 4.29273 z m 5.723639,2.86182 v -7.15455 h 1.005061 1.005061 l 4.718578,4.57343 4.718579,4.57342 v -4.57342 -4.57343 h 1.430909 1.43091 v 7.15455 7.15455 h -1.005061 -1.005061 l -4.718578,-4.57343 -4.718578,-4.57342 v 4.57342 4.57343 h -1.43091 -1.43091 z m 22.894557,1.43091 v -5.72364 h -2.861819 -2.86182 v -1.43091 -1.43091 h 7.154549 7.1545491 v 1.43091 1.43091 h -2.8618196 -2.8618195 v 5.72364 5.72364 h -1.43091 -1.43091 z m 11.4472788,-1.43091 v -7.15455 h 7.1545491 7.1545491 v 7.15455 7.15455 h -1.43091 -1.4309096 v -2.86182 -2.86182 H 4.9406859 0.64795643 v 2.86182 2.86182 H -0.78295339 -2.2138632 Z m 11.4472786,-2.86182 v -1.43091 H 4.9406859 0.64795643 v 1.43091 1.43091 H 4.9406859 9.2334154 Z m 5.7236396,8.58546 v -1.43091 h 5.008184 5.008184 v -1.43091 -1.43091 h -3.402066 -3.402069 l -1.781324,-2.14637 -1.781323,-2.14636 1.781323,-2.14637 1.781324,-2.14636 h 5.548433 5.548432 v 1.43091 1.43091 h -5.008185 -5.008184 v 1.43091 1.43091 h 3.402067 3.402068 l 1.781324,2.14636 1.781324,2.14637 -1.781324,2.14636 -1.781324,2.14637 h -5.548433 -5.548431 z m 22.894557,-1.08671 v -2.51762 l -2.86182,-1.78723 -2.86182,-1.78724 v -2.8497 -2.84969 h 1.264022 1.26402 l 0.748384,2.86182 0.74838,2.86182 h 3.129744 3.129743 l 0.74838,-2.86182 0.74838,-2.86182 h 1.264023 1.264023 v 2.84969 2.8497 l -2.86182,1.78724 -2.86182,1.78723 v 2.51762 2.51762 h -1.430909 -1.43091 z m 30.335288,0.80053 -1.717092,-1.71709 v -3.72037 -3.72037 l 1.717092,-1.71709 1.717092,-1.71709 h 5.437457 5.437457 v 1.34453 1.34453 l -5.365911,0.44411 -5.365912,0.4441 v 3.57728 3.57727 l 5.365912,0.44411 5.365911,0.4441 v 1.34454 1.34453 h -5.437457 -5.437457 z m 17.170918,0 -1.717092,-1.71709 v -3.72037 -3.72037 l 1.717092,-1.71709 1.717092,-1.71709 h 3.720365 3.720366 l 1.717091,1.71709 1.717092,1.71709 v 3.72037 3.72037 l -1.717092,1.71709 -1.717091,1.71709 H 90.795275 87.07491 Z m 9.014732,-5.43746 v -3.57728 l -3.225944,-0.45808 -3.225943,-0.45809 -0.862152,2.24673 -0.862151,2.24672 0.862151,2.24672 0.862152,2.24673 3.225943,-0.45809 3.225944,-0.45809 z m 6.43909,0 v -7.15455 h 1.00506 1.00507 l 4.71857,4.57343 4.71858,4.57342 v -4.57342 -4.57343 h 1.43091 1.43091 v 7.15455 7.15455 h -1.00505 -1.00508 l -4.71856,-4.57343 -4.71859,-4.57342 v 4.57342 4.57343 h -1.43091 -1.43091 z m 17.17092,5.72364 v -1.43091 h 5.00819 5.00818 v -1.43091 -1.43091 h -3.40207 -3.40206 l -1.78133,-2.14637 -1.78132,-2.14636 1.78132,-2.14637 1.78133,-2.14636 h 5.54842 5.54844 v 1.43091 1.43091 h -5.00818 -5.00819 v 1.43091 1.43091 h 3.40208 3.40205 l 1.78133,2.14636 1.78133,2.14637 -1.78133,2.14636 -1.78133,2.14637 h -5.54842 -5.54844 z m 18.88801,-0.28618 -1.71709,-1.71709 v -3.72037 -3.72037 l 1.71709,-1.71709 1.71709,-1.71709 h 3.72037 3.72036 l 1.7171,1.71709 1.71709,1.71709 v 3.72037 3.72037 l -1.71709,1.71709 -1.7171,1.71709 h -3.72036 -3.72037 z m 9.01473,-5.43746 v -3.57728 l -3.22594,-0.45808 -3.22594,-0.45809 -0.86216,2.24673 -0.86215,2.24672 0.86215,2.24672 0.86216,2.24673 3.22594,-0.45809 3.22594,-0.45809 z m 7.39304,6.20061 -0.95394,-0.95394 v -6.20061 -6.20061 h 1.34452 1.34454 l 0.4441,5.36591 0.44411,5.36591 5.36591,0.44411 5.36592,0.4441 v 1.34454 1.34453 h -6.20061 -6.20062 z m 16.78671,-1.05621 -0.77138,-2.01015 0.45855,-4.78667 0.45855,-4.78667 6.79682,-0.43613 6.79682,-0.43613 v 1.50931 1.50931 h -5.72364 -5.72364 v 1.43091 1.43091 h 2.86182 2.86182 v 1.43091 1.43091 h -2.86182 -2.86182 v 1.43091 1.43091 h 5.72364 5.72364 v 1.43091 1.43091 h -6.48399 -6.48401 z M -108.10119,180.32027 V 157.8376 l 6.02157,-6.13552 6.021562,-6.13553 h 22.596631 22.59663 v 17.17091 17.17092 h -17.170918 -17.170918 v 11.44728 11.44728 h -11.447278 -11.447279 z m 34.341836,-17.58281 v -5.72364 h -5.72364 -5.723639 v 5.72364 5.72364 h 5.723639 5.72364 z m 34.341835,34.34184 v -5.72364 h 5.72364 5.723639 v -17.17092 -17.17092 h -5.723639 -5.72364 v -5.72363 -5.72364 h 22.894558 22.8945567 v 5.72364 5.72363 H 0.64795643 -5.0756829 v 17.17092 17.17092 H 0.64795643 6.3715957 v 5.72364 5.72364 H -16.522961 -39.417519 Z M 17.818874,180.32027 V 157.8376 l 6.021566,-6.13552 6.021567,-6.13553 H 46.735 63.607989 v 5.72364 5.72363 H 52.16071 40.713431 v 17.17092 17.17092 H 52.16071 63.607989 v 5.72364 5.72364 H 40.713431 17.818874 Z m 57.236393,0 V 157.8376 l 6.021569,-6.13552 6.021569,-6.13553 h 22.596625 22.59663 v 22.59663 22.59663 l -6.13553,6.02157 -6.13552,6.02156 H 97.537937 75.055267 Z m 34.341833,-6.13553 v -17.17092 h -5.72364 -5.723636 v 17.17092 17.17092 h 5.723636 5.72364 z m 68.68367,11.73768 V 169.0419 l 5.72364,-5.58898 5.72364,-5.58899 v -6.14869 -6.14869 h 22.89456 22.89456 v 28.61819 28.6182 h -28.6182 -28.6182 z m 45.78912,-0.2904 v -5.72364 h -11.44728 -11.44728 v 5.72364 5.72364 h 11.44728 11.44728 z m 0,-22.89456 v -5.72364 h -11.44728 -11.44728 v 5.72364 5.72364 h 11.44728 11.44728 z m -80.13095,11.44728 v -5.72364 h 11.44728 11.44728 v 5.72364 5.72364 h -11.44728 -11.44728 z m 114.47278,-22.89455 v -5.72364 h -5.72364 -5.72363 v -5.72364 -5.72364 h -5.72364 -5.72364 v -5.72364 -5.72364 h 5.72364 5.72364 v -5.72364 -5.72364 h 5.72363 5.72364 v -6.4391 -6.439091 h 5.72364 5.72364 v 6.439091 6.4391 h 5.72364 5.72364 v 5.72364 5.72364 h 5.72364 5.72364 v 5.72364 5.72364 h -5.72364 -5.72364 v 5.72364 5.72364 h -5.72364 -5.72364 v 5.72364 5.72363 h -5.72364 -5.72364 z"
           id="path1572" />
        <path
           style="fill:#fecba9;stroke-width:1.43090987"
           d="m 258.21172,151.29019 v -5.72364 h -5.72364 -5.72363 v -5.72364 -5.72364 h -5.72364 -5.72364 v -5.72364 -5.72364 h 5.72364 5.72364 v -5.72364 -5.72364 h 5.72363 5.72364 v -6.4391 -6.439091 h 5.72364 5.72364 v 6.439091 6.4391 h 5.72364 5.72364 v 5.72364 5.72364 h 5.72364 5.72364 v 5.72364 5.72364 h -5.72364 -5.72364 v 5.72364 5.72364 h -5.72364 -5.72364 v 5.72364 5.72363 h -5.72364 -5.72364 z M 269.659,139.84291 v -5.72364 h 5.72364 5.72364 v -5.72364 -5.72364 h -5.72364 -5.72364 v -5.72364 -5.72364 h -5.72364 -5.72364 v 5.72364 5.72364 h -5.72364 -5.72363 v 5.72364 5.72364 h 5.72363 5.72364 v 5.72364 5.72364 h 5.72364 5.72364 z"
           id="path1570" />
        <path
           style="fill:#fe76a7;stroke-width:1.43090987"
           d="m 258.21172,151.29019 v -5.72364 h -5.72364 -5.72363 v -5.72364 -5.72364 h -5.72364 -5.72364 v -5.72364 -5.72364 h 5.72364 5.72364 v -5.72364 -5.72364 h 5.72363 5.72364 v -6.4391 -6.439091 h 5.72364 5.72364 v 6.439091 6.4391 h -5.72364 -5.72364 v 5.72364 5.72364 h -5.72364 -5.72363 v 5.72364 5.72364 h 5.72363 5.72364 v 5.72364 5.72364 h 5.72364 5.72364 v -5.72364 -5.72364 h 5.72364 5.72364 v -5.72364 -5.72364 h 5.72364 5.72364 v 5.72364 5.72364 h -5.72364 -5.72364 v 5.72364 5.72364 h -5.72364 -5.72364 v 5.72364 5.72363 h -5.72364 -5.72364 z"
           id="path1568" />
        <path
           style="fill:#feeb26;stroke-width:1.43090987"
           d="m 258.21172,151.29019 v -5.72364 h -5.72364 -5.72363 v -5.72364 -5.72364 h -5.72364 -5.72364 v -5.72364 -5.72364 h 5.72364 5.72364 v -5.72364 -5.72364 h 5.72363 5.72364 v -6.4391 -6.439091 h 5.72364 5.72364 v 6.439091 6.4391 h -5.72364 -5.72364 v 5.72364 5.72364 h -5.72364 -5.72363 v 5.72364 5.72364 h 5.72363 5.72364 v 5.72364 5.72364 h 5.72364 5.72364 v -5.72364 -5.72364 h 5.72364 5.72364 v 5.72364 5.72364 h -5.72364 -5.72364 v 5.72364 5.72363 h -5.72364 -5.72364 z"
           id="path1566" />
        <path
           style="fill:#28acfe;stroke-width:1.43090987"
           d="m 258.21172,151.29019 v -5.72364 h -5.72364 -5.72363 v -5.72364 -5.72364 h 5.72363 5.72364 v 5.72364 5.72364 h 5.72364 5.72364 v -5.72364 -5.72364 h 5.72364 5.72364 v 5.72364 5.72364 h -5.72364 -5.72364 v 5.72364 5.72363 h -5.72364 -5.72364 z m -11.44727,-34.34184 v -5.72364 h 5.72363 5.72364 v -6.4391 -6.439091 h 5.72364 5.72364 v 6.439091 6.4391 h -5.72364 -5.72364 v 5.72364 5.72364 h -5.72364 -5.72363 z"
           id="path1564" />
        <path
           style="fill:#fea200;stroke-width:1.43090987"
           d="m 246.76445,139.84291 v -5.72364 h 5.72363 5.72364 v 5.72364 5.72364 h -5.72364 -5.72363 z m 22.89455,0 v -5.72364 h 5.72364 5.72364 v 5.72364 5.72364 h -5.72364 -5.72364 z m -22.89455,-22.89456 v -5.72364 h 5.72363 5.72364 v -6.4391 -6.439091 h 5.72364 5.72364 v 6.439091 6.4391 h -5.72364 -5.72364 v 5.72364 5.72364 h -5.72364 -5.72363 z"
           id="path1562" />
        <path
           style="fill:#82759b;stroke-width:1.43090987"
           d="m 246.76445,139.84291 v -5.72364 h 5.72363 5.72364 v 5.72364 5.72364 h -5.72364 -5.72363 z m 22.89455,0 v -5.72364 h 5.72364 5.72364 v 5.72364 5.72364 h -5.72364 -5.72364 z m -11.44728,-35.0573 v -6.439091 h 5.72364 5.72364 v 6.439091 6.4391 h -5.72364 -5.72364 z"
           id="path1560" />
        <path
           style="fill:#fe004c;stroke-width:1.43090987"
           d="m 246.76445,139.84291 v -5.72364 h 5.72363 5.72364 v 5.72364 5.72364 h -5.72364 -5.72363 z m 11.44727,-35.0573 v -6.439091 h 5.72364 5.72364 v 6.439091 6.4391 h -5.72364 -5.72364 z"
           id="path1558" />
        <path
           style="fill:#00e335;stroke-width:1.43090987"
           d="m 246.76445,139.84291 v -5.72364 h 5.72363 5.72364 v 5.72364 5.72364 h -5.72364 -5.72363 z"
           id="path1556" />
      </g>
    </g>
  </g>
</svg>
